<mxfile host="65bd71144e">
    <diagram id="GheFGhkOpgtgbr-BCx4A" name="ページ1">
        <mxGraphModel dx="840" dy="860" grid="1" gridSize="10" guides="1" tooltips="1" connect="1" arrows="1" fold="1" page="1" pageScale="1" pageWidth="827" pageHeight="1169" math="0" shadow="0">
            <root>
                <mxCell id="0"/>
                <mxCell id="1" parent="0"/>
                <mxCell id="2" value="" style="shape=table;html=1;whiteSpace=wrap;startSize=0;container=1;collapsible=0;childLayout=tableLayout;fontFamily=Times New Roman;fontSize=20;labelBackgroundColor=#FFFFFF;" vertex="1" parent="1">
                    <mxGeometry x="170" y="310" width="440" height="400" as="geometry"/>
                </mxCell>
                <mxCell id="47" style="shape=partialRectangle;html=1;whiteSpace=wrap;collapsible=0;dropTarget=0;pointerEvents=0;fillColor=none;top=0;left=0;bottom=0;right=0;points=[[0,0.5],[1,0.5]];portConstraint=eastwest;fontFamily=Times New Roman;fontSize=20;" vertex="1" parent="2">
                    <mxGeometry width="440" height="57" as="geometry"/>
                </mxCell>
                <mxCell id="48" value="(0,0)" style="shape=partialRectangle;html=1;whiteSpace=wrap;connectable=0;fillColor=#dae8fc;top=0;left=0;bottom=0;right=0;overflow=hidden;pointerEvents=1;fontFamily=Times New Roman;fontSize=20;strokeColor=#6c8ebf;" vertex="1" parent="47">
                    <mxGeometry width="63" height="57" as="geometry">
                        <mxRectangle width="63" height="57" as="alternateBounds"/>
                    </mxGeometry>
                </mxCell>
                <mxCell id="49" style="shape=partialRectangle;html=1;whiteSpace=wrap;connectable=0;fillColor=none;top=0;left=0;bottom=0;right=0;overflow=hidden;pointerEvents=1;fontFamily=Times New Roman;fontSize=20;" vertex="1" parent="47">
                    <mxGeometry x="63" width="63" height="57" as="geometry">
                        <mxRectangle width="63" height="57" as="alternateBounds"/>
                    </mxGeometry>
                </mxCell>
                <mxCell id="50" style="shape=partialRectangle;html=1;whiteSpace=wrap;connectable=0;fillColor=none;top=0;left=0;bottom=0;right=0;overflow=hidden;pointerEvents=1;fontFamily=Times New Roman;fontSize=20;" vertex="1" parent="47">
                    <mxGeometry x="126" width="64" height="57" as="geometry">
                        <mxRectangle width="64" height="57" as="alternateBounds"/>
                    </mxGeometry>
                </mxCell>
                <mxCell id="51" style="shape=partialRectangle;html=1;whiteSpace=wrap;connectable=0;fillColor=none;top=0;left=0;bottom=0;right=0;overflow=hidden;pointerEvents=1;fontFamily=Times New Roman;fontSize=20;" vertex="1" parent="47">
                    <mxGeometry x="190" width="60" height="57" as="geometry">
                        <mxRectangle width="60" height="57" as="alternateBounds"/>
                    </mxGeometry>
                </mxCell>
                <mxCell id="52" style="shape=partialRectangle;html=1;whiteSpace=wrap;connectable=0;fillColor=none;top=0;left=0;bottom=0;right=0;overflow=hidden;pointerEvents=1;fontFamily=Times New Roman;fontSize=20;" vertex="1" parent="47">
                    <mxGeometry x="250" width="64" height="57" as="geometry">
                        <mxRectangle width="64" height="57" as="alternateBounds"/>
                    </mxGeometry>
                </mxCell>
                <mxCell id="53" style="shape=partialRectangle;html=1;whiteSpace=wrap;connectable=0;fillColor=none;top=0;left=0;bottom=0;right=0;overflow=hidden;pointerEvents=1;fontFamily=Times New Roman;fontSize=20;" vertex="1" parent="47">
                    <mxGeometry x="314" width="63" height="57" as="geometry">
                        <mxRectangle width="63" height="57" as="alternateBounds"/>
                    </mxGeometry>
                </mxCell>
                <mxCell id="54" style="shape=partialRectangle;html=1;whiteSpace=wrap;connectable=0;fillColor=none;top=0;left=0;bottom=0;right=0;overflow=hidden;pointerEvents=1;fontFamily=Times New Roman;fontSize=20;" vertex="1" parent="47">
                    <mxGeometry x="377" width="63" height="57" as="geometry">
                        <mxRectangle width="63" height="57" as="alternateBounds"/>
                    </mxGeometry>
                </mxCell>
                <mxCell id="40" style="shape=partialRectangle;html=1;whiteSpace=wrap;collapsible=0;dropTarget=0;pointerEvents=0;fillColor=none;top=0;left=0;bottom=0;right=0;points=[[0,0.5],[1,0.5]];portConstraint=eastwest;fontFamily=Times New Roman;fontSize=20;" vertex="1" parent="2">
                    <mxGeometry y="57" width="440" height="57" as="geometry"/>
                </mxCell>
                <mxCell id="41" style="shape=partialRectangle;html=1;whiteSpace=wrap;connectable=0;fillColor=none;top=0;left=0;bottom=0;right=0;overflow=hidden;pointerEvents=1;fontFamily=Times New Roman;fontSize=20;" vertex="1" parent="40">
                    <mxGeometry width="63" height="57" as="geometry">
                        <mxRectangle width="63" height="57" as="alternateBounds"/>
                    </mxGeometry>
                </mxCell>
                <mxCell id="42" style="shape=partialRectangle;html=1;whiteSpace=wrap;connectable=0;fillColor=none;top=0;left=0;bottom=0;right=0;overflow=hidden;pointerEvents=1;fontFamily=Times New Roman;fontSize=20;" vertex="1" parent="40">
                    <mxGeometry x="63" width="63" height="57" as="geometry">
                        <mxRectangle width="63" height="57" as="alternateBounds"/>
                    </mxGeometry>
                </mxCell>
                <mxCell id="43" value="&lt;span style=&quot;color: rgb(0 , 0 , 0) ; font-size: 20px ; font-style: normal ; font-weight: 400 ; letter-spacing: normal ; text-align: center ; text-indent: 0px ; text-transform: none ; word-spacing: 0px ; display: inline ; float: none&quot;&gt;(2,1)&lt;/span&gt;" style="shape=partialRectangle;html=1;whiteSpace=wrap;connectable=0;fillColor=#dae8fc;top=0;left=0;bottom=0;right=0;overflow=hidden;pointerEvents=1;fontFamily=Times New Roman;fontSize=20;strokeColor=#6c8ebf;" vertex="1" parent="40">
                    <mxGeometry x="126" width="64" height="57" as="geometry">
                        <mxRectangle width="64" height="57" as="alternateBounds"/>
                    </mxGeometry>
                </mxCell>
                <mxCell id="44" style="shape=partialRectangle;html=1;whiteSpace=wrap;connectable=0;fillColor=none;top=0;left=0;bottom=0;right=0;overflow=hidden;pointerEvents=1;fontFamily=Times New Roman;fontSize=20;" vertex="1" parent="40">
                    <mxGeometry x="190" width="60" height="57" as="geometry">
                        <mxRectangle width="60" height="57" as="alternateBounds"/>
                    </mxGeometry>
                </mxCell>
                <mxCell id="45" style="shape=partialRectangle;html=1;whiteSpace=wrap;connectable=0;fillColor=none;top=0;left=0;bottom=0;right=0;overflow=hidden;pointerEvents=1;fontFamily=Times New Roman;fontSize=20;" vertex="1" parent="40">
                    <mxGeometry x="250" width="64" height="57" as="geometry">
                        <mxRectangle width="64" height="57" as="alternateBounds"/>
                    </mxGeometry>
                </mxCell>
                <mxCell id="46" style="shape=partialRectangle;html=1;whiteSpace=wrap;connectable=0;fillColor=none;top=0;left=0;bottom=0;right=0;overflow=hidden;pointerEvents=1;fontFamily=Times New Roman;fontSize=20;" vertex="1" parent="40">
                    <mxGeometry x="314" width="63" height="57" as="geometry">
                        <mxRectangle width="63" height="57" as="alternateBounds"/>
                    </mxGeometry>
                </mxCell>
                <mxCell id="55" style="shape=partialRectangle;html=1;whiteSpace=wrap;connectable=0;fillColor=none;top=0;left=0;bottom=0;right=0;overflow=hidden;pointerEvents=1;fontFamily=Times New Roman;fontSize=20;" vertex="1" parent="40">
                    <mxGeometry x="377" width="63" height="57" as="geometry">
                        <mxRectangle width="63" height="57" as="alternateBounds"/>
                    </mxGeometry>
                </mxCell>
                <mxCell id="3" value="" style="shape=partialRectangle;html=1;whiteSpace=wrap;collapsible=0;dropTarget=0;pointerEvents=0;fillColor=none;top=0;left=0;bottom=0;right=0;points=[[0,0.5],[1,0.5]];portConstraint=eastwest;fontFamily=Times New Roman;fontSize=20;" vertex="1" parent="2">
                    <mxGeometry y="114" width="440" height="57" as="geometry"/>
                </mxCell>
                <mxCell id="34" style="shape=partialRectangle;html=1;whiteSpace=wrap;connectable=0;fillColor=none;top=0;left=0;bottom=0;right=0;overflow=hidden;pointerEvents=1;fontFamily=Times New Roman;fontSize=20;" vertex="1" parent="3">
                    <mxGeometry width="63" height="57" as="geometry">
                        <mxRectangle width="63" height="57" as="alternateBounds"/>
                    </mxGeometry>
                </mxCell>
                <mxCell id="31" value="&lt;span style=&quot;font-size: 20px;&quot;&gt;(1,2)&lt;/span&gt;" style="shape=partialRectangle;html=1;whiteSpace=wrap;connectable=0;fillColor=#dae8fc;top=0;left=0;bottom=0;right=0;overflow=hidden;pointerEvents=1;fontFamily=Times New Roman;fontSize=20;strokeColor=#6c8ebf;" vertex="1" parent="3">
                    <mxGeometry x="63" width="63" height="57" as="geometry">
                        <mxRectangle width="63" height="57" as="alternateBounds"/>
                    </mxGeometry>
                </mxCell>
                <mxCell id="4" value="" style="shape=partialRectangle;html=1;whiteSpace=wrap;connectable=0;fillColor=none;top=0;left=0;bottom=0;right=0;overflow=hidden;pointerEvents=1;fontFamily=Times New Roman;fontSize=20;" vertex="1" parent="3">
                    <mxGeometry x="126" width="64" height="57" as="geometry">
                        <mxRectangle width="64" height="57" as="alternateBounds"/>
                    </mxGeometry>
                </mxCell>
                <mxCell id="5" value="" style="shape=partialRectangle;html=1;whiteSpace=wrap;connectable=0;fillColor=none;top=0;left=0;bottom=0;right=0;overflow=hidden;pointerEvents=1;fontFamily=Times New Roman;fontSize=20;" vertex="1" parent="3">
                    <mxGeometry x="190" width="60" height="57" as="geometry">
                        <mxRectangle width="60" height="57" as="alternateBounds"/>
                    </mxGeometry>
                </mxCell>
                <mxCell id="28" value="&lt;span style=&quot;color: rgb(0, 0, 0); font-size: 20px; font-style: normal; font-weight: 400; letter-spacing: normal; text-align: center; text-indent: 0px; text-transform: none; word-spacing: 0px; display: inline; float: none;&quot;&gt;(2,4)&lt;/span&gt;" style="shape=partialRectangle;html=1;whiteSpace=wrap;connectable=0;fillColor=#dae8fc;top=0;left=0;bottom=0;right=0;overflow=hidden;pointerEvents=1;fontFamily=Times New Roman;fontSize=20;strokeColor=#6c8ebf;labelBackgroundColor=none;" vertex="1" parent="3">
                    <mxGeometry x="250" width="64" height="57" as="geometry">
                        <mxRectangle width="64" height="57" as="alternateBounds"/>
                    </mxGeometry>
                </mxCell>
                <mxCell id="37" style="shape=partialRectangle;html=1;whiteSpace=wrap;connectable=0;fillColor=none;top=0;left=0;bottom=0;right=0;overflow=hidden;pointerEvents=1;fontFamily=Times New Roman;fontSize=20;" vertex="1" parent="3">
                    <mxGeometry x="314" width="63" height="57" as="geometry">
                        <mxRectangle width="63" height="57" as="alternateBounds"/>
                    </mxGeometry>
                </mxCell>
                <mxCell id="56" style="shape=partialRectangle;html=1;whiteSpace=wrap;connectable=0;fillColor=none;top=0;left=0;bottom=0;right=0;overflow=hidden;pointerEvents=1;fontFamily=Times New Roman;fontSize=20;" vertex="1" parent="3">
                    <mxGeometry x="377" width="63" height="57" as="geometry">
                        <mxRectangle width="63" height="57" as="alternateBounds"/>
                    </mxGeometry>
                </mxCell>
                <mxCell id="7" value="" style="shape=partialRectangle;html=1;whiteSpace=wrap;collapsible=0;dropTarget=0;pointerEvents=0;fillColor=none;top=0;left=0;bottom=0;right=0;points=[[0,0.5],[1,0.5]];portConstraint=eastwest;fontFamily=Times New Roman;fontSize=20;" vertex="1" parent="2">
                    <mxGeometry y="171" width="440" height="58" as="geometry"/>
                </mxCell>
                <mxCell id="35" style="shape=partialRectangle;html=1;whiteSpace=wrap;connectable=0;fillColor=none;top=0;left=0;bottom=0;right=0;overflow=hidden;pointerEvents=1;fontFamily=Times New Roman;fontSize=20;" vertex="1" parent="7">
                    <mxGeometry width="63" height="58" as="geometry">
                        <mxRectangle width="63" height="58" as="alternateBounds"/>
                    </mxGeometry>
                </mxCell>
                <mxCell id="32" style="shape=partialRectangle;html=1;whiteSpace=wrap;connectable=0;fillColor=none;top=0;left=0;bottom=0;right=0;overflow=hidden;pointerEvents=1;fontFamily=Times New Roman;fontSize=20;" vertex="1" parent="7">
                    <mxGeometry x="63" width="63" height="58" as="geometry">
                        <mxRectangle width="63" height="58" as="alternateBounds"/>
                    </mxGeometry>
                </mxCell>
                <mxCell id="8" value="" style="shape=partialRectangle;html=1;whiteSpace=wrap;connectable=0;fillColor=none;top=0;left=0;bottom=0;right=0;overflow=hidden;pointerEvents=1;fontFamily=Times New Roman;fontSize=20;" vertex="1" parent="7">
                    <mxGeometry x="126" width="64" height="58" as="geometry">
                        <mxRectangle width="64" height="58" as="alternateBounds"/>
                    </mxGeometry>
                </mxCell>
                <mxCell id="9" value="&lt;span style=&quot;color: rgb(0, 0, 0); font-size: 20px; font-style: normal; font-weight: 400; letter-spacing: normal; text-align: center; text-indent: 0px; text-transform: none; word-spacing: 0px; display: inline; float: none;&quot;&gt;(3,3)&lt;/span&gt;" style="shape=partialRectangle;html=1;whiteSpace=wrap;connectable=0;fillColor=#dae8fc;top=0;left=0;bottom=0;right=0;overflow=hidden;pointerEvents=1;fontFamily=Times New Roman;fontSize=20;strokeColor=#6c8ebf;labelBackgroundColor=none;" vertex="1" parent="7">
                    <mxGeometry x="190" width="60" height="58" as="geometry">
                        <mxRectangle width="60" height="58" as="alternateBounds"/>
                    </mxGeometry>
                </mxCell>
                <mxCell id="29" style="shape=partialRectangle;html=1;whiteSpace=wrap;connectable=0;fillColor=none;top=0;left=0;bottom=0;right=0;overflow=hidden;pointerEvents=1;fontFamily=Times New Roman;fontSize=20;" vertex="1" parent="7">
                    <mxGeometry x="250" width="64" height="58" as="geometry">
                        <mxRectangle width="64" height="58" as="alternateBounds"/>
                    </mxGeometry>
                </mxCell>
                <mxCell id="38" style="shape=partialRectangle;html=1;whiteSpace=wrap;connectable=0;fillColor=none;top=0;left=0;bottom=0;right=0;overflow=hidden;pointerEvents=1;fontFamily=Times New Roman;fontSize=20;" vertex="1" parent="7">
                    <mxGeometry x="314" width="63" height="58" as="geometry">
                        <mxRectangle width="63" height="58" as="alternateBounds"/>
                    </mxGeometry>
                </mxCell>
                <mxCell id="57" value="&lt;span style=&quot;font-size: 20px;&quot;&gt;(3,6)&lt;/span&gt;" style="shape=partialRectangle;html=1;whiteSpace=wrap;connectable=0;fillColor=#dae8fc;top=0;left=0;bottom=0;right=0;overflow=hidden;pointerEvents=1;fontFamily=Times New Roman;fontSize=20;strokeColor=#6c8ebf;" vertex="1" parent="7">
                    <mxGeometry x="377" width="63" height="58" as="geometry">
                        <mxRectangle width="63" height="58" as="alternateBounds"/>
                    </mxGeometry>
                </mxCell>
                <mxCell id="11" value="" style="shape=partialRectangle;html=1;whiteSpace=wrap;collapsible=0;dropTarget=0;pointerEvents=0;fillColor=none;top=0;left=0;bottom=0;right=0;points=[[0,0.5],[1,0.5]];portConstraint=eastwest;fontFamily=Times New Roman;fontSize=20;" vertex="1" parent="2">
                    <mxGeometry y="229" width="440" height="57" as="geometry"/>
                </mxCell>
                <mxCell id="36" style="shape=partialRectangle;html=1;whiteSpace=wrap;connectable=0;fillColor=none;top=0;left=0;bottom=0;right=0;overflow=hidden;pointerEvents=1;fontFamily=Times New Roman;fontSize=20;" vertex="1" parent="11">
                    <mxGeometry width="63" height="57" as="geometry">
                        <mxRectangle width="63" height="57" as="alternateBounds"/>
                    </mxGeometry>
                </mxCell>
                <mxCell id="33" style="shape=partialRectangle;html=1;whiteSpace=wrap;connectable=0;fillColor=none;top=0;left=0;bottom=0;right=0;overflow=hidden;pointerEvents=1;fontFamily=Times New Roman;fontSize=20;" vertex="1" parent="11">
                    <mxGeometry x="63" width="63" height="57" as="geometry">
                        <mxRectangle width="63" height="57" as="alternateBounds"/>
                    </mxGeometry>
                </mxCell>
                <mxCell id="12" value="&lt;span style=&quot;color: rgb(0 , 0 , 0) ; font-size: 20px ; font-style: normal ; font-weight: 400 ; letter-spacing: normal ; text-align: center ; text-indent: 0px ; text-transform: none ; word-spacing: 0px ; display: inline ; float: none&quot;&gt;(4,2)&lt;/span&gt;" style="shape=partialRectangle;html=1;whiteSpace=wrap;connectable=0;fillColor=#dae8fc;top=0;left=0;bottom=0;right=0;overflow=hidden;pointerEvents=1;fontFamily=Times New Roman;fontSize=20;strokeColor=#6c8ebf;" vertex="1" parent="11">
                    <mxGeometry x="126" width="64" height="57" as="geometry">
                        <mxRectangle width="64" height="57" as="alternateBounds"/>
                    </mxGeometry>
                </mxCell>
                <mxCell id="13" value="" style="shape=partialRectangle;html=1;whiteSpace=wrap;connectable=0;fillColor=none;top=0;left=0;bottom=0;right=0;overflow=hidden;pointerEvents=1;fontFamily=Times New Roman;fontSize=20;" vertex="1" parent="11">
                    <mxGeometry x="190" width="60" height="57" as="geometry">
                        <mxRectangle width="60" height="57" as="alternateBounds"/>
                    </mxGeometry>
                </mxCell>
                <mxCell id="30" style="shape=partialRectangle;html=1;whiteSpace=wrap;connectable=0;fillColor=none;top=0;left=0;bottom=0;right=0;overflow=hidden;pointerEvents=1;fontFamily=Times New Roman;fontSize=20;" vertex="1" parent="11">
                    <mxGeometry x="250" width="64" height="57" as="geometry">
                        <mxRectangle width="64" height="57" as="alternateBounds"/>
                    </mxGeometry>
                </mxCell>
                <mxCell id="39" value="&lt;span style=&quot;color: rgb(0, 0, 0); font-size: 20px; font-style: normal; font-weight: 400; letter-spacing: normal; text-align: center; text-indent: 0px; text-transform: none; word-spacing: 0px; display: inline; float: none;&quot;&gt;(4,5)&lt;/span&gt;" style="shape=partialRectangle;html=1;whiteSpace=wrap;connectable=0;fillColor=#dae8fc;top=0;left=0;bottom=0;right=0;overflow=hidden;pointerEvents=1;fontFamily=Times New Roman;fontSize=20;strokeColor=#6c8ebf;labelBackgroundColor=none;" vertex="1" parent="11">
                    <mxGeometry x="314" width="63" height="57" as="geometry">
                        <mxRectangle width="63" height="57" as="alternateBounds"/>
                    </mxGeometry>
                </mxCell>
                <mxCell id="58" style="shape=partialRectangle;html=1;whiteSpace=wrap;connectable=0;fillColor=none;top=0;left=0;bottom=0;right=0;overflow=hidden;pointerEvents=1;fontFamily=Times New Roman;fontSize=20;" vertex="1" parent="11">
                    <mxGeometry x="377" width="63" height="57" as="geometry">
                        <mxRectangle width="63" height="57" as="alternateBounds"/>
                    </mxGeometry>
                </mxCell>
                <mxCell id="59" style="shape=partialRectangle;html=1;whiteSpace=wrap;collapsible=0;dropTarget=0;pointerEvents=0;fillColor=none;top=0;left=0;bottom=0;right=0;points=[[0,0.5],[1,0.5]];portConstraint=eastwest;fontFamily=Times New Roman;fontSize=20;" vertex="1" parent="2">
                    <mxGeometry y="286" width="440" height="57" as="geometry"/>
                </mxCell>
                <mxCell id="60" style="shape=partialRectangle;html=1;whiteSpace=wrap;connectable=0;fillColor=none;top=0;left=0;bottom=0;right=0;overflow=hidden;pointerEvents=1;fontFamily=Times New Roman;fontSize=20;" vertex="1" parent="59">
                    <mxGeometry width="63" height="57" as="geometry">
                        <mxRectangle width="63" height="57" as="alternateBounds"/>
                    </mxGeometry>
                </mxCell>
                <mxCell id="61" style="shape=partialRectangle;html=1;whiteSpace=wrap;connectable=0;fillColor=none;top=0;left=0;bottom=0;right=0;overflow=hidden;pointerEvents=1;fontFamily=Times New Roman;fontSize=20;" vertex="1" parent="59">
                    <mxGeometry x="63" width="63" height="57" as="geometry">
                        <mxRectangle width="63" height="57" as="alternateBounds"/>
                    </mxGeometry>
                </mxCell>
                <mxCell id="62" style="shape=partialRectangle;html=1;whiteSpace=wrap;connectable=0;fillColor=none;top=0;left=0;bottom=0;right=0;overflow=hidden;pointerEvents=1;fontFamily=Times New Roman;fontSize=20;" vertex="1" parent="59">
                    <mxGeometry x="126" width="64" height="57" as="geometry">
                        <mxRectangle width="64" height="57" as="alternateBounds"/>
                    </mxGeometry>
                </mxCell>
                <mxCell id="63" style="shape=partialRectangle;html=1;whiteSpace=wrap;connectable=0;fillColor=none;top=0;left=0;bottom=0;right=0;overflow=hidden;pointerEvents=1;fontFamily=Times New Roman;fontSize=20;" vertex="1" parent="59">
                    <mxGeometry x="190" width="60" height="57" as="geometry">
                        <mxRectangle width="60" height="57" as="alternateBounds"/>
                    </mxGeometry>
                </mxCell>
                <mxCell id="64" value="&lt;span style=&quot;color: rgb(0, 0, 0); font-size: 20px; font-style: normal; font-weight: 400; letter-spacing: normal; text-align: center; text-indent: 0px; text-transform: none; word-spacing: 0px; display: inline; float: none;&quot;&gt;(5,4)&lt;/span&gt;" style="shape=partialRectangle;html=1;whiteSpace=wrap;connectable=0;fillColor=#dae8fc;top=0;left=0;bottom=0;right=0;overflow=hidden;pointerEvents=1;fontFamily=Times New Roman;fontSize=20;strokeColor=#6c8ebf;labelBackgroundColor=none;" vertex="1" parent="59">
                    <mxGeometry x="250" width="64" height="57" as="geometry">
                        <mxRectangle width="64" height="57" as="alternateBounds"/>
                    </mxGeometry>
                </mxCell>
                <mxCell id="65" style="shape=partialRectangle;html=1;whiteSpace=wrap;connectable=0;fillColor=none;top=0;left=0;bottom=0;right=0;overflow=hidden;pointerEvents=1;fontFamily=Times New Roman;fontSize=20;" vertex="1" parent="59">
                    <mxGeometry x="314" width="63" height="57" as="geometry">
                        <mxRectangle width="63" height="57" as="alternateBounds"/>
                    </mxGeometry>
                </mxCell>
                <mxCell id="66" style="shape=partialRectangle;html=1;whiteSpace=wrap;connectable=0;fillColor=none;top=0;left=0;bottom=0;right=0;overflow=hidden;pointerEvents=1;fontFamily=Times New Roman;fontSize=20;" vertex="1" parent="59">
                    <mxGeometry x="377" width="63" height="57" as="geometry">
                        <mxRectangle width="63" height="57" as="alternateBounds"/>
                    </mxGeometry>
                </mxCell>
                <mxCell id="67" style="shape=partialRectangle;html=1;whiteSpace=wrap;collapsible=0;dropTarget=0;pointerEvents=0;fillColor=none;top=0;left=0;bottom=0;right=0;points=[[0,0.5],[1,0.5]];portConstraint=eastwest;fontFamily=Times New Roman;fontSize=20;" vertex="1" parent="2">
                    <mxGeometry y="343" width="440" height="57" as="geometry"/>
                </mxCell>
                <mxCell id="68" style="shape=partialRectangle;html=1;whiteSpace=wrap;connectable=0;fillColor=none;top=0;left=0;bottom=0;right=0;overflow=hidden;pointerEvents=1;fontFamily=Times New Roman;fontSize=20;" vertex="1" parent="67">
                    <mxGeometry width="63" height="57" as="geometry">
                        <mxRectangle width="63" height="57" as="alternateBounds"/>
                    </mxGeometry>
                </mxCell>
                <mxCell id="69" style="shape=partialRectangle;html=1;whiteSpace=wrap;connectable=0;fillColor=none;top=0;left=0;bottom=0;right=0;overflow=hidden;pointerEvents=1;fontFamily=Times New Roman;fontSize=20;" vertex="1" parent="67">
                    <mxGeometry x="63" width="63" height="57" as="geometry">
                        <mxRectangle width="63" height="57" as="alternateBounds"/>
                    </mxGeometry>
                </mxCell>
                <mxCell id="70" style="shape=partialRectangle;html=1;whiteSpace=wrap;connectable=0;fillColor=none;top=0;left=0;bottom=0;right=0;overflow=hidden;pointerEvents=1;fontFamily=Times New Roman;fontSize=20;" vertex="1" parent="67">
                    <mxGeometry x="126" width="64" height="57" as="geometry">
                        <mxRectangle width="64" height="57" as="alternateBounds"/>
                    </mxGeometry>
                </mxCell>
                <mxCell id="71" value="&lt;span style=&quot;color: rgb(0, 0, 0); font-size: 20px; font-style: normal; font-weight: 400; letter-spacing: normal; text-align: center; text-indent: 0px; text-transform: none; word-spacing: 0px; display: inline; float: none;&quot;&gt;(6,3)&lt;/span&gt;" style="shape=partialRectangle;html=1;whiteSpace=wrap;connectable=0;fillColor=#dae8fc;top=0;left=0;bottom=0;right=0;overflow=hidden;pointerEvents=1;fontFamily=Times New Roman;fontSize=20;strokeColor=#6c8ebf;labelBackgroundColor=none;" vertex="1" parent="67">
                    <mxGeometry x="190" width="60" height="57" as="geometry">
                        <mxRectangle width="60" height="57" as="alternateBounds"/>
                    </mxGeometry>
                </mxCell>
                <mxCell id="72" style="shape=partialRectangle;html=1;whiteSpace=wrap;connectable=0;fillColor=none;top=0;left=0;bottom=0;right=0;overflow=hidden;pointerEvents=1;fontFamily=Times New Roman;fontSize=20;" vertex="1" parent="67">
                    <mxGeometry x="250" width="64" height="57" as="geometry">
                        <mxRectangle width="64" height="57" as="alternateBounds"/>
                    </mxGeometry>
                </mxCell>
                <mxCell id="73" style="shape=partialRectangle;html=1;whiteSpace=wrap;connectable=0;fillColor=none;top=0;left=0;bottom=0;right=0;overflow=hidden;pointerEvents=1;fontFamily=Times New Roman;fontSize=20;" vertex="1" parent="67">
                    <mxGeometry x="314" width="63" height="57" as="geometry">
                        <mxRectangle width="63" height="57" as="alternateBounds"/>
                    </mxGeometry>
                </mxCell>
                <mxCell id="74" style="shape=partialRectangle;html=1;whiteSpace=wrap;connectable=0;fillColor=none;top=0;left=0;bottom=0;right=0;overflow=hidden;pointerEvents=1;fontFamily=Times New Roman;fontSize=20;" vertex="1" parent="67">
                    <mxGeometry x="377" width="63" height="57" as="geometry">
                        <mxRectangle width="63" height="57" as="alternateBounds"/>
                    </mxGeometry>
                </mxCell>
                <mxCell id="78" value="1" style="text;html=1;strokeColor=none;fillColor=none;align=center;verticalAlign=middle;whiteSpace=wrap;rounded=0;labelBackgroundColor=none;fontFamily=メイリオ;fontSize=20;fontSource=https%3A%2F%2Ffonts.googleapis.com%2Fcss%3Ffamily%3D%25E3%2583%25A1%25E3%2582%25A4%25E3%2583%25AA%25E3%2582%25AA;fontColor=#FF0080;" vertex="1" parent="1">
                    <mxGeometry x="170" y="280" width="60" height="30" as="geometry"/>
                </mxCell>
                <mxCell id="79" value="1" style="text;html=1;strokeColor=none;fillColor=none;align=center;verticalAlign=middle;whiteSpace=wrap;rounded=0;labelBackgroundColor=none;fontFamily=メイリオ;fontSize=20;fontSource=https%3A%2F%2Ffonts.googleapis.com%2Fcss%3Ffamily%3D%25E3%2583%25A1%25E3%2582%25A4%25E3%2583%25AA%25E3%2582%25AA;fontColor=#FF0080;" vertex="1" parent="1">
                    <mxGeometry x="230" y="400" width="70" height="30" as="geometry"/>
                </mxCell>
                <mxCell id="80" value="1" style="text;html=1;strokeColor=none;fillColor=none;align=center;verticalAlign=middle;whiteSpace=wrap;rounded=0;labelBackgroundColor=none;fontFamily=メイリオ;fontSize=20;fontSource=https%3A%2F%2Ffonts.googleapis.com%2Fcss%3Ffamily%3D%25E3%2583%25A1%25E3%2582%25A4%25E3%2583%25AA%25E3%2582%25AA;fontColor=#FF0080;" vertex="1" parent="1">
                    <mxGeometry x="290" y="340" width="70" height="30" as="geometry"/>
                </mxCell>
                <mxCell id="82" value="2" style="text;html=1;strokeColor=none;fillColor=none;align=center;verticalAlign=middle;whiteSpace=wrap;rounded=0;labelBackgroundColor=none;fontFamily=メイリオ;fontSize=20;fontSource=https%3A%2F%2Ffonts.googleapis.com%2Fcss%3Ffamily%3D%25E3%2583%25A1%25E3%2582%25A4%25E3%2583%25AA%25E3%2582%25AA;fontColor=#FF0080;" vertex="1" parent="1">
                    <mxGeometry x="360" y="450" width="60" height="30" as="geometry"/>
                </mxCell>
                <mxCell id="83" value="1" style="text;html=1;strokeColor=none;fillColor=none;align=center;verticalAlign=middle;whiteSpace=wrap;rounded=0;labelBackgroundColor=none;fontFamily=メイリオ;fontSize=20;fontSource=https%3A%2F%2Ffonts.googleapis.com%2Fcss%3Ffamily%3D%25E3%2583%25A1%25E3%2582%25A4%25E3%2583%25AA%25E3%2582%25AA;fontColor=#FF0080;" vertex="1" parent="1">
                    <mxGeometry x="290" y="510" width="70" height="30" as="geometry"/>
                </mxCell>
                <mxCell id="84" value="1" style="text;html=1;strokeColor=none;fillColor=none;align=center;verticalAlign=middle;whiteSpace=wrap;rounded=0;labelBackgroundColor=none;fontFamily=メイリオ;fontSize=20;fontSource=https%3A%2F%2Ffonts.googleapis.com%2Fcss%3Ffamily%3D%25E3%2583%25A1%25E3%2582%25A4%25E3%2583%25AA%25E3%2582%25AA;fontColor=#FF0080;" vertex="1" parent="1">
                    <mxGeometry x="414" y="390" width="70" height="30" as="geometry"/>
                </mxCell>
                <mxCell id="85" value="1" style="text;html=1;strokeColor=none;fillColor=none;align=center;verticalAlign=middle;whiteSpace=wrap;rounded=0;labelBackgroundColor=none;fontFamily=メイリオ;fontSize=20;fontSource=https%3A%2F%2Ffonts.googleapis.com%2Fcss%3Ffamily%3D%25E3%2583%25A1%25E3%2582%25A4%25E3%2583%25AA%25E3%2582%25AA;fontColor=#FF0080;" vertex="1" parent="1">
                    <mxGeometry x="355" y="620" width="70" height="30" as="geometry"/>
                </mxCell>
                <mxCell id="143" value="3" style="text;html=1;strokeColor=none;fillColor=none;align=center;verticalAlign=middle;whiteSpace=wrap;rounded=0;labelBackgroundColor=none;fontFamily=メイリオ;fontSize=20;fontSource=https%3A%2F%2Ffonts.googleapis.com%2Fcss%3Ffamily%3D%25E3%2583%25A1%25E3%2582%25A4%25E3%2583%25AA%25E3%2582%25AA;fontColor=#FF0080;" vertex="1" parent="1">
                    <mxGeometry x="414" y="569.5" width="70" height="30" as="geometry"/>
                </mxCell>
                <mxCell id="201" value="3" style="text;html=1;strokeColor=none;fillColor=none;align=center;verticalAlign=middle;whiteSpace=wrap;rounded=0;labelBackgroundColor=none;fontFamily=メイリオ;fontSize=20;fontSource=https%3A%2F%2Ffonts.googleapis.com%2Fcss%3Ffamily%3D%25E3%2583%25A1%25E3%2582%25A4%25E3%2583%25AA%25E3%2582%25AA;fontColor=#FF0080;" vertex="1" parent="1">
                    <mxGeometry x="480" y="510" width="70" height="30" as="geometry"/>
                </mxCell>
                <mxCell id="202" value="1" style="text;html=1;strokeColor=none;fillColor=none;align=center;verticalAlign=middle;whiteSpace=wrap;rounded=0;labelBackgroundColor=none;fontFamily=メイリオ;fontSize=20;fontSource=https%3A%2F%2Ffonts.googleapis.com%2Fcss%3Ffamily%3D%25E3%2583%25A1%25E3%2582%25A4%25E3%2583%25AA%25E3%2582%25AA;fontColor=#FF0080;" vertex="1" parent="1">
                    <mxGeometry x="540" y="450" width="70" height="30" as="geometry"/>
                </mxCell>
            </root>
        </mxGraphModel>
    </diagram>
</mxfile>